<svg id="Layer_1" data-name="Layer 1" xmlns="http://www.w3.org/2000/svg" viewBox="0 0 575.09 44.88"><defs><style>.cls-1{fill:#f2f2f2;}</style></defs><title>nblogo</title><path class="cls-1" d="M48.76,44.88L18.88,14.45V44.88h-12V0.6h13L49.82,31.15V0.6H61.71V44.88h-13Z"/><path class="cls-1" d="M75.57,44.88V0.6H120.4V10H87.85v7.32h30.87V26.8H87.85v8.64h33v9.44H75.57Z"/><path class="cls-1" d="M162.1,44.88H148.18L125.78,0.6h13.34l16.11,33.32L171.32,0.6h13.34Z"/><path class="cls-1" d="M191.91,44.88V0.6h44.83V10H204.19v7.32h30.87V26.8H204.19v8.64h33v9.44H191.91Z"/><path class="cls-1" d="M260.68,44.88h-12V0.6h30a29.18,29.18,0,0,1,8.2,1,14.52,14.52,0,0,1,5.48,2.84,10.66,10.66,0,0,1,3.06,4.43,16.74,16.74,0,0,1,1,5.78,13.86,13.86,0,0,1-.79,4.9,11.37,11.37,0,0,1-2.13,3.59,12.7,12.7,0,0,1-3.11,2.53,21,21,0,0,1-3.74,1.71l14.5,17.5h-14L273.73,28.57H260.68V44.88ZM284.3,14.58a6.27,6.27,0,0,0-.34-2.19,3,3,0,0,0-1.18-1.47,5.94,5.94,0,0,0-2.24-.82,19.81,19.81,0,0,0-3.5-.26H260.68v9.47h16.37a19.77,19.77,0,0,0,3.5-.26,5.92,5.92,0,0,0,2.24-.82A3,3,0,0,0,284,16.77,6.26,6.26,0,0,0,284.3,14.58Z"/><path class="cls-1" d="M354.11,32.66a13.37,13.37,0,0,1-.68,4.48,9.91,9.91,0,0,1-1.88,3.27,9.59,9.59,0,0,1-2.9,2.22A17.55,17.55,0,0,1,344.92,44a27.85,27.85,0,0,1-4.35.69q-2.32.19-4.8,0.19H310.21V0.6h25q1.9,0,3.8.16a23.5,23.5,0,0,1,3.66.6,14.85,14.85,0,0,1,3.25,1.21,8.92,8.92,0,0,1,2.61,2,9.14,9.14,0,0,1,1.74,3,12.58,12.58,0,0,1,.63,4.19,11.72,11.72,0,0,1-.53,3.74,7.15,7.15,0,0,1-1.61,2.71A8.33,8.33,0,0,1,346,20.11a18.35,18.35,0,0,1-3.93,1.14,19.39,19.39,0,0,1,5.51,1.1,10.45,10.45,0,0,1,3.74,2.32,8.78,8.78,0,0,1,2.13,3.46A14.17,14.17,0,0,1,354.11,32.66Zm-7-20.75A13.56,13.56,0,0,0,347,10a5.34,5.34,0,0,0-.58-1.78,5.59,5.59,0,0,0-1.3-1.59,7.34,7.34,0,0,0-2.34-1.27,18.81,18.81,0,0,0-3.66-.83,38.4,38.4,0,0,0-5.24-.31H314.24v15.4h19.63a31,31,0,0,0,7-.63,10.91,10.91,0,0,0,4-1.68,4.91,4.91,0,0,0,1.84-2.47A10,10,0,0,0,347.11,11.91Zm2.77,20.67A9.62,9.62,0,0,0,349,28.3a7.06,7.06,0,0,0-2.67-2.9,13.42,13.42,0,0,0-4.64-1.66,37.15,37.15,0,0,0-6.74-.53H314.24v18h21.27a41.53,41.53,0,0,0,6.78-.47,12.4,12.4,0,0,0,4.45-1.51,6,6,0,0,0,2.42-2.69A9.77,9.77,0,0,0,349.88,32.58Z"/><path class="cls-1" d="M456.83,44.88l-6.09-11.7H420.67l-6.09,11.7h-4.41L433.33,0.6h4.74l23.17,44.28h-4.41ZM435.72,4.5l-13.08,25h26.14Z"/><path class="cls-1" d="M474,25.93V44.88h-4V0.6h22a41.14,41.14,0,0,1,8.67.79,16.55,16.55,0,0,1,5.91,2.38,9.51,9.51,0,0,1,3.37,4A13.59,13.59,0,0,1,511,13.33a11.63,11.63,0,0,1-2.61,7.94q-2.61,3-8.41,4.08l15.11,19.53H510L495.74,25.8q-0.9.07-1.84,0.1t-1.93,0H474Zm32.9-12.6a9.23,9.23,0,0,0-1-4.59A6.54,6.54,0,0,0,502.6,6a20,20,0,0,0-5.92-1.31q-3.66-.34-9-0.34H474V22.16h13.61q5.32,0,9-.31a20.19,20.19,0,0,0,6-1.26,6.6,6.6,0,0,0,3.31-2.67A9,9,0,0,0,506.86,13.33Z"/><path class="cls-1" d="M573.24,22.7a29.29,29.29,0,0,1-.89,7.56,19.67,19.67,0,0,1-2.5,5.75,16.23,16.23,0,0,1-3.92,4.16,20.19,20.19,0,0,1-5.12,2.74,30,30,0,0,1-6.12,1.5,49.6,49.6,0,0,1-6.95.47H524.9V0.6h22.78a45.56,45.56,0,0,1,10.12,1.06,21.25,21.25,0,0,1,8.11,3.63,17.32,17.32,0,0,1,5.38,6.82A25.44,25.44,0,0,1,573.24,22.7Zm-4.12,0a25.86,25.86,0,0,0-.71-6.39,16.27,16.27,0,0,0-2-4.82,12.79,12.79,0,0,0-3.23-3.44,16.93,16.93,0,0,0-4.29-2.24,24.48,24.48,0,0,0-5.19-1.21,47.55,47.55,0,0,0-6-.35H528.93V41.2H547.7a40.92,40.92,0,0,0,8.68-.85,17.2,17.2,0,0,0,6.76-3,14,14,0,0,0,4.4-5.68A22.23,22.23,0,0,0,569.12,22.72Z"/><path class="cls-1" d="M394.47,5.09L404.8,23,394.47,40.88H373.81L363.48,23,373.81,5.09h20.66m2.31-4H371.5L358.86,23,371.5,44.88h25.28L409.41,23,396.78,1.09h0Z"/></svg>